<svg id="Ebene_1" data-name="Ebene 1" xmlns="http://www.w3.org/2000/svg" viewBox="0 0 200 100"><defs><style>.cls-1{fill:#989a9c;}.cls-2{fill:#53565a;}</style></defs><title>Module Logos</title><path class="cls-1" d="M29.39,11.08H19.85V88.92h9.54v2.25H17.6V8.83H29.39Z"/><path class="cls-1" d="M170.61,8.83H182.4V91.17H170.61V88.92h9.5V11.08h-9.5Z"/><path class="cls-2" d="M57.32,38v4.63H47.44v5.28h7.63V52.3H47.44V62H41.61V38Z"/><path class="cls-2" d="M66.14,57.58H73.9V62H60.31V38h5.83Z"/><path class="cls-2" d="M76.46,49.66a13.55,13.55,0,0,1,1.3-6,9.74,9.74,0,0,1,9-5.67,9.55,9.55,0,0,1,7.51,3.25,12.52,12.52,0,0,1,2.87,8.62v.53a13.89,13.89,0,0,1-1.29,6.07,9.76,9.76,0,0,1-3.66,4.15A10.08,10.08,0,0,1,86.85,62a9.54,9.54,0,0,1-7.5-3.25,12.48,12.48,0,0,1-2.89-8.62Zm2.58.7a10.58,10.58,0,0,0,2.15,6.84,7.3,7.3,0,0,0,11.29,0,10.87,10.87,0,0,0,2.16-7.05v-.49a11.82,11.82,0,0,0-1-4.88,8,8,0,0,0-2.77-3.42,7,7,0,0,0-4.07-1.21,6.9,6.9,0,0,0-5.61,2.69,10.94,10.94,0,0,0-2.16,7Z"/><path class="cls-2" d="M101.08,49.66a13.55,13.55,0,0,1,1.3-6,9.74,9.74,0,0,1,9-5.67,9.55,9.55,0,0,1,7.52,3.25,12.57,12.57,0,0,1,2.87,8.62v.53a13.76,13.76,0,0,1-1.3,6.07,9.63,9.63,0,0,1-3.66,4.15A10,10,0,0,1,111.47,62a9.54,9.54,0,0,1-7.5-3.25,12.48,12.48,0,0,1-2.89-8.62Zm2.57.7a10.53,10.53,0,0,0,2.16,6.84,7.3,7.3,0,0,0,11.29,0,10.87,10.87,0,0,0,2.16-7.05v-.49a11.82,11.82,0,0,0-1-4.88,8,8,0,0,0-2.77-3.42,7,7,0,0,0-4.08-1.21,6.89,6.89,0,0,0-5.6,2.69,11,11,0,0,0-2.17,7Z"/><path class="cls-2" d="M137.85,40.58a9.72,9.72,0,0,0-1.74-.15A6.24,6.24,0,0,0,132,41.77a7.3,7.3,0,0,0-2.37,3.89v16h-2.56V38.39h2.52l0,3.69A6.82,6.82,0,0,1,136.21,38a4.15,4.15,0,0,1,1.7.28Z"/><path class="cls-2" d="M155.81,55.71a3.67,3.67,0,0,0-1.53-3.07,11.85,11.85,0,0,0-4.63-1.81,20.84,20.84,0,0,1-4.8-1.51,6.35,6.35,0,0,1-2.53-2.07,5.15,5.15,0,0,1-.83-3,5.54,5.54,0,0,1,2.3-4.54A9.3,9.3,0,0,1,149.67,38a9.57,9.57,0,0,1,6.24,1.92,6.18,6.18,0,0,1,2.35,5h-2.58A4.17,4.17,0,0,0,154,41.5a6.75,6.75,0,0,0-4.31-1.35,6.68,6.68,0,0,0-4.07,1.13,3.46,3.46,0,0,0-1.53,2.92,3.19,3.19,0,0,0,1.28,2.7A13.42,13.42,0,0,0,150,48.65a21.89,21.89,0,0,1,5.07,1.69,6.59,6.59,0,0,1,2.5,2.17,5.6,5.6,0,0,1,.82,3.07,5.54,5.54,0,0,1-2.38,4.7A10.14,10.14,0,0,1,149.82,62a10.43,10.43,0,0,1-6.58-2,6.05,6.05,0,0,1-2.52-5h2.58a4.47,4.47,0,0,0,1.9,3.51,7.8,7.8,0,0,0,4.62,1.25,7.28,7.28,0,0,0,4.34-1.18A3.53,3.53,0,0,0,155.81,55.71Z"/></svg>